<svg width="22" height="24" viewBox="0 0 22 24" fill="none" xmlns="http://www.w3.org/2000/svg">
<path d="M20.1813 5C20.1813 5.55228 19.7336 6 19.1813 6H2.99402C2.44173 6 1.99402 5.55228 1.99402 5C1.99402 4.44772 2.44173 4 2.99402 4H19.1813C19.7336 4 20.1813 4.44772 20.1813 5ZM20.1813 12C20.1813 11.4477 19.7336 11 19.1813 11H2.99402C2.44173 11 1.99402 11.4477 1.99402 12C1.99402 12.5523 2.44173 13 2.99402 13H19.1813C19.7336 13 20.1813 12.5523 20.1813 12ZM20.1813 19C20.1813 18.4477 19.7336 18 19.1813 18H2.99402C2.44173 18 1.99402 18.4477 1.99402 19C1.99402 19.5523 2.44173 20 2.99402 20H19.1813C19.7336 20 20.1813 19.5523 20.1813 19Z" fill="black"/>
</svg>
