<svg width="35" height="35" viewBox="0 0 35 35" fill="none" xmlns="http://www.w3.org/2000/svg">
<path d="M14.995 0.89671C15.6833 0.319377 16.5759 0 17.5013 0C18.4266 0 19.3192 0.319377 20.0075 0.89671L33.7575 12.431C34.1484 12.7592 34.4611 13.1605 34.6751 13.6088C34.8892 14.0571 34.9999 14.5424 35 15.0333V31.4991C35 32.4276 34.6049 33.3181 33.9017 33.9746C33.1984 34.6312 32.2446 35 31.25 35H25C24.0054 35 23.0516 34.6312 22.3484 33.9746C21.6451 33.3181 21.25 32.4276 21.25 31.4991V23.3304C21.25 23.0209 21.1183 22.7241 20.8839 22.5052C20.6495 22.2864 20.3315 22.1634 20 22.1634H15C14.6685 22.1634 14.3505 22.2864 14.1161 22.5052C13.8817 22.7241 13.75 23.0209 13.75 23.3304V31.4991C13.75 32.4276 13.3549 33.3181 12.6517 33.9746C11.9484 34.6312 10.9946 35 10 35H3.75C2.75544 35 1.80161 34.6312 1.09835 33.9746C0.395088 33.3181 0 32.4276 0 31.4991V15.0333C0 14.0414 0.45 13.0961 1.245 12.431L14.995 0.89671ZM18.335 2.63315C18.1056 2.44092 17.8082 2.3346 17.5 2.3346C17.1918 2.3346 16.8944 2.44092 16.665 2.63315L2.915 14.1674C2.78474 14.2766 2.68049 14.41 2.60901 14.5592C2.53752 14.7084 2.50038 14.8699 2.5 15.0333V31.4991C2.5 31.8086 2.6317 32.1054 2.86612 32.3243C3.10054 32.5431 3.41848 32.6661 3.75 32.6661H10C10.3315 32.6661 10.6495 32.5431 10.8839 32.3243C11.1183 32.1054 11.25 31.8086 11.25 31.4991V23.3304C11.25 22.4019 11.6451 21.5114 12.3484 20.8549C13.0516 20.1983 14.0054 19.8295 15 19.8295H20C20.9946 19.8295 21.9484 20.1983 22.6517 20.8549C23.3549 21.5114 23.75 22.4019 23.75 23.3304V31.4991C23.75 31.8086 23.8817 32.1054 24.1161 32.3243C24.3505 32.5431 24.6685 32.6661 25 32.6661H31.25C31.5815 32.6661 31.8995 32.5431 32.1339 32.3243C32.3683 32.1054 32.5 31.8086 32.5 31.4991V15.0333C32.4996 14.8699 32.4625 14.7084 32.391 14.5592C32.3195 14.41 32.2153 14.2766 32.085 14.1674L18.335 2.63315Z" fill="black"/>
</svg>

